<?xml version="1.0" encoding="UTF-8"?><svg id="Calque_1" xmlns="http://www.w3.org/2000/svg" viewBox="0 0 590.93 153.81"><defs><style>.cls-1{fill:#D96846;}.cls-2{fill:#00334a;}</style></defs><path class="cls-1" d="M81.38,43.43c.03,22.3-18.49,40.56-41.09,40.52C18.04,83.9-.04,65.65,0,43.26,.04,20.53,18.12,2.42,40.7,2.52c22.6,.09,40.66,18.26,40.68,40.91Z"/><path class="cls-1" d="M342.11,98.24c.02,17.73-.03,35.47,.05,53.21,0,1.84-.41,2.35-2.31,2.34-16.33-.09-32.66-.09-48.99,0-1.94,0-2.3-.58-2.29-2.39,.06-25.98,.04-51.97,.04-77.95,0-4.83-.21-9.65-1.69-14.31-2.73-8.52-9.27-12.93-18.24-12.27-11.22,.82-18.17,7.97-19.16,19.8-.2,2.4-.2,4.82-.2,7.24,0,25.73-.04,51.46,.05,77.2,0,2.28-.65,2.69-2.77,2.68-16-.09-31.99-.09-47.99,0-2.03,0-2.63-.41-2.62-2.55,.06-27.15,.03-54.3-.02-81.45,0-3.42-.48-6.79-1.47-10.08-2.76-9.18-9.49-13.71-19.05-12.81-11.23,1.07-18.42,9.26-18.44,21.23-.04,27.4,0,54.8,0,82.2q0,3.41-3.37,3.41c-15.82,0-31.65-.03-47.48,.04-1.82,.01-2.35-.37-2.35-2.29,.06-48.55,.05-97.1,.01-145.65,0-1.7,.35-2.24,2.15-2.23,15.75,.07,31.49,.07,47.24,0,1.71,0,2.03,.56,2.01,2.11-.08,6.08-.03,12.16-.03,18.24v3.01C166.32,10.16,180.59-.3,200.94,.09c20.3,.4,34.51,10.36,43.27,28.5,5.72-10.4,13.55-18.51,24.33-23.61,19.14-9.04,47.58-6.51,62.54,13.7,7,9.47,10.52,20.22,10.8,31.84,.39,15.9,.2,31.81,.23,47.72Z"/><path class="cls-1" d="M590.4,6.33c-16.25,48.03-32.53,96.04-48.67,144.1-.93,2.74-2.11,3.41-4.86,3.38-13.66-.16-27.32-.12-40.99-.01-2.05,.01-2.82-.63-3.43-2.52-7.95-24.73-15.98-49.43-23.99-74.14-.07-.21-.16-.4-.41-1.01-1.78,5.56-3.44,10.76-5.09,15.96-6.3,19.86-12.63,39.71-18.84,59.59-.53,1.7-1.25,2.11-2.93,2.1-14.75-.07-29.5-.07-44.24,0-1.69,.01-2.43-.45-2.98-2.08-16.64-48.51-33.33-96.99-50.01-145.48-.27-.77-.73-1.51-.58-2.47,.39-.04,.8-.1,1.2-.1,17,0,34,.03,50.99-.04,1.62,0,2.07,.6,2.45,2.02,6.94,25.38,13.93,50.76,20.93,76.13,.28,1,.34,2.1,1.22,3.19,3.48-10.87,6.88-21.5,10.27-32.13,5.02-15.73,10.05-31.46,15.01-47.22,.48-1.53,1.14-2,2.76-1.99,12.74,.07,25.49,.11,38.24-.02,2.28-.02,3.25,.59,3.97,2.82,8.24,25.68,16.61,51.32,24.95,76.97,.22,.68,.48,1.35,.84,2.36,5.13-19.22,10.16-38.07,15.19-56.93,2.05-7.7,4.13-15.39,6.07-23.12,.44-1.73,1.25-2.09,2.91-2.08,16,.07,32,.04,47.99,.04q2.93,0,2.03,2.68Z"/><path class="cls-2" d="M342.16,151.45c0,1.84-.41,2.35-2.31,2.34-16.33-.09-32.66-.09-48.99,0-1.94,0-2.3-.58-2.29-2.39,.06-25.98,.04-51.97,.04-77.95,0-4.83-.21-9.65-1.69-14.31-2.73-8.52-9.27-12.93-18.24-12.27-11.22,.82-18.17,7.97-19.16,19.8-.2,2.4-.2,4.82-.2,7.24,0,25.73-.04,51.46,.05,77.2,0,2.28-.65,2.69-2.77,2.68-16-.09-31.99-.09-47.99,0-2.03,0-2.63-.41-2.62-2.55,.06-27.15,.03-54.3-.02-81.45,0-3.42-.48-6.79-1.47-10.08-2.76-9.18-9.49-13.71-19.05-12.81-11.23,1.07-18.42,9.26-18.44,21.23-.04,27.4,0,54.8,0,82.2q0,3.41-3.37,3.41c-15.82,0-31.65-.03-47.48,.04-1.82,.01-2.35-.37-2.35-2.29,.06-48.55,.05-97.1,.01-145.65,0-1.7,.35-2.24,2.15-2.23,15.75,.07,31.49,.07,47.24,0,1.71,0,2.03,.56,2.01,2.11-.08,6.08-.03,12.16-.03,18.24v3.01C166.32,10.16,180.59-.3,200.94,.09c20.3,.4,34.51,10.36,43.27,28.5,5.72-10.4,13.55-18.51,24.33-23.61,19.14-9.04,47.58-6.51,62.54,13.7,7,9.47,10.52,20.22,10.8,31.84,.39,15.9,.2,31.81,.23,47.72,.02,17.73-.03,35.47,.05,53.21Z"/><path class="cls-2" d="M590.4,6.33c-16.25,48.03-32.53,96.04-48.67,144.1-.93,2.74-2.11,3.41-4.86,3.38-13.66-.16-27.32-.12-40.99-.01-2.05,.01-2.82-.63-3.43-2.52-7.95-24.73-15.98-49.43-23.99-74.14-.07-.21-.16-.4-.41-1.01-1.78,5.56-3.44,10.76-5.09,15.96-6.3,19.86-12.63,39.71-18.84,59.59-.53,1.7-1.25,2.11-2.93,2.1-14.75-.07-29.5-.07-44.24,0-1.69,.01-2.43-.45-2.98-2.08-16.64-48.51-33.33-96.99-50.01-145.48-.27-.77-.73-1.51-.58-2.47,.39-.04,.8-.1,1.2-.1,17,0,34,.03,50.99-.04,1.62,0,2.07,.6,2.45,2.02,6.94,25.38,13.93,50.76,20.93,76.13,.28,1,.34,2.1,1.22,3.19,3.48-10.87,6.88-21.5,10.27-32.13,5.02-15.73,10.05-31.46,15.01-47.22,.48-1.53,1.14-2,2.76-1.99,12.74,.07,25.49,.11,38.24-.02,2.28-.02,3.25,.59,3.97,2.82,8.24,25.68,16.61,51.32,24.95,76.97,.22,.68,.48,1.35,.84,2.36,5.13-19.22,10.16-38.07,15.19-56.93,2.05-7.7,4.13-15.39,6.07-23.12,.44-1.73,1.25-2.09,2.91-2.08,16,.07,32,.04,47.99,.04q2.93,0,2.03,2.68Z"/><path class="cls-1" d="M81.38,43.43c.03,22.3-18.49,40.56-41.09,40.52C18.04,83.9-.04,65.65,0,43.26,.04,20.53,18.12,2.42,40.7,2.52c22.6,.09,40.66,18.26,40.68,40.91Z"/></svg>
